<?xml version="1.0" encoding="UTF-8" standalone="no"?>
<!DOCTYPE svg PUBLIC "-//W3C//DTD SVG 1.1//EN" "http://www.w3.org/Graphics/SVG/1.1/DTD/svg11.dtd">
<svg width="100%" height="100%" viewBox="0 0 142 181" version="1.1" xmlns="http://www.w3.org/2000/svg" xmlns:xlink="http://www.w3.org/1999/xlink" xml:space="preserve" xmlns:serif="http://www.serif.com/" style="fill-rule:evenodd;clip-rule:evenodd;stroke-linejoin:round;stroke-miterlimit:2;">
    <g transform="matrix(0.1,0,0,-0.1,0,181)">
        <path d="M639,1784C602,1745 606,1686 648,1649C672,1627 680,1612 680,1586C680,1552 679,1551 633,1545C481,1526 369,1478 284,1398C238,1354 183,1266 166,1208C162,1193 153,1191 116,1196C75,1202 68,1200 41,1173C-13,1118 -13,991 42,937C67,912 77,908 110,913L149,918L166,862C208,729 317,651 505,620C582,607 838,607 915,620C1103,651 1212,729 1254,862L1271,918L1310,913C1366,905 1406,946 1415,1021C1429,1136 1383,1207 1302,1196C1267,1191 1258,1193 1254,1208C1237,1266 1182,1354 1136,1398C1051,1478 939,1526 788,1545C741,1551 740,1552 740,1586C740,1612 748,1627 772,1649C799,1673 805,1685 805,1718C805,1778 771,1810 710,1810C673,1810 659,1805 639,1784ZM1085,1267C1107,1254 1134,1227 1147,1205C1167,1169 1170,1151 1170,1035C1170,919 1167,901 1147,865C1134,843 1107,816 1085,803C1046,781 1039,780 710,780C381,780 374,781 335,803C313,816 286,843 273,865C253,901 250,919 250,1035C250,1151 253,1169 273,1205C286,1227 313,1254 335,1267C374,1289 381,1290 710,1290C1039,1290 1046,1289 1085,1267Z" style="fill:currentColor;fill-rule:nonzero;"/>
        <path d="M465,1183C383,1162 343,1062 384,981C406,939 477,906 523,915C570,925 617,965 630,1006C665,1110 572,1210 465,1183Z" style="fill:currentColor;fill-rule:nonzero;"/>
        <path d="M880,1172C783,1124 775,993 865,934C899,911 968,912 1007,935C1099,989 1089,1134 990,1174C939,1194 923,1194 880,1172Z" style="fill:currentColor;fill-rule:nonzero;"/>
        <path d="M155,545C131,522 130,515 130,398C130,254 139,230 195,230C254,230 260,245 260,400C260,532 259,540 238,554C206,576 183,574 155,545Z" style="fill:currentColor;fill-rule:nonzero;"/>
        <path d="M332,545C312,520 310,505 310,408C310,306 311,298 335,275L359,250L1061,250L1085,275C1108,297 1110,306 1110,404C1110,519 1099,557 1063,566C1050,570 972,567 890,560C749,548 631,549 429,566C355,572 353,572 332,545Z" style="fill:currentColor;fill-rule:nonzero;"/>
        <path d="M1175,545C1151,522 1150,515 1150,398C1150,254 1159,230 1215,230C1274,230 1280,245 1280,400C1280,532 1279,540 1258,554C1226,576 1203,574 1175,545Z" style="fill:currentColor;fill-rule:nonzero;"/>
        <path d="M530,195C510,171 535,89 573,52C643,-15 779,-13 839,55C874,95 897,167 882,190C868,212 549,218 530,195Z" style="fill:currentColor;fill-rule:nonzero;"/>
    </g>
</svg>